<?xml version="1.0" encoding="utf-8"?>
<!-- Generator: Adobe Illustrator 19.2.1, SVG Export Plug-In . SVG Version: 6.00 Build 0)  -->
<svg version="1.1" id="图层_1" xmlns:sketch="http://www.bohemiancoding.com/sketch/ns"
	 xmlns="http://www.w3.org/2000/svg" xmlns:xlink="http://www.w3.org/1999/xlink" x="0px" y="0px" viewBox="0 0 30 30"
	 style="enable-background:new 0 0 30 30;" xml:space="preserve">
<style type="text/css">
	.st0{fill:none;stroke:#BBCADA;stroke-width:1.5;}
	.st1{fill:none;stroke:#BBCADA;}
	.st2{fill:#FFFFFF;stroke:#BBCADA;}
	.st3{fill:#FFFFFF;}
</style>
<title>5</title>
<desc>Created with Sketch.</desc>
<g id="Page-1" sketch:type="MSPage">
	<g id="_x31_170" transform="translate(-697.000000, -1390.000000)" sketch:type="MSArtboardGroup">
		<g id="_x32_" transform="translate(45.000000, 1211.000000)" sketch:type="MSLayerGroup">
			<g id="Group-10" transform="translate(607.000000, 25.000000)" sketch:type="MSShapeGroup">
				<g id="_x35_" transform="translate(74.590164, 155.543478)">
					<path id="Path-6582" class="st0" d="M-14.2,2.9l-11.8,3v16.3l11.7,3.7l11.9-3.7l0-16.2L-14.2,2.9z"/>
					<path id="Path-6583" class="st1" d="M-25.9,5.9l11.6,2.9l12-2.8"/>
					<path id="Path-6584" class="st1" d="M-14.2,8.4v17.3"/>
					<g id="Group-2" transform="translate(0.273029, 8.298721)">
						<path id="Oval-218" class="st2" d="M-18.2,13.3c3,0,5.3-2.4,5.3-5.3s-2.4-5.3-5.3-5.3s-5.3,2.4-5.3,5.3S-21.2,13.3-18.2,13.3z
							"/>
						<ellipse id="Oval-218_1_" class="st2" cx="-18.2" cy="8.1" rx="3.9" ry="3.9"/>
						<path id="Path-6586" class="st3" d="M-24.4,15.7l3.7-3.9l-1.5-1.4l-0.8,0.7l-3.5,3.6L-24.4,15.7z"/>
						<path id="Path-6585" class="st1" d="M-22.9,10.5l-4,4.1c0,0-0.6,0.8,0.1,1.7c0.7,0.9,1.9,0.4,1.9,0.4l4.1-4"/>
					</g>
				</g>
			</g>
		</g>
	</g>
</g>
</svg>
