<?xml version="1.0" encoding="utf-8"?>
<!-- Generator: Adobe Illustrator 19.2.1, SVG Export Plug-In . SVG Version: 6.00 Build 0)  -->
<svg version="1.1" id="图层_1" xmlns:sketch="http://www.bohemiancoding.com/sketch/ns"
	 xmlns="http://www.w3.org/2000/svg" xmlns:xlink="http://www.w3.org/1999/xlink" x="0px" y="0px" viewBox="0 0 30 30"
	 style="enable-background:new 0 0 30 30;" xml:space="preserve">
<style type="text/css">
	.st0{stroke:#BBCADA;fill:#FFFFFF}
	.st1{fill:none;stroke:#BBCADA;stroke-linecap:square;}
</style>
<title>3</title>
<desc>Created with Sketch.</desc>
<g id="Page-1" sketch:type="MSPage">
	<g id="_x31_170" transform="translate(-876.000000, -1313.000000)" sketch:type="MSArtboardGroup">
		<g id="_x32_" transform="translate(45.000000, 1211.000000)" sketch:type="MSLayerGroup">
			<g id="Group-10" transform="translate(607.000000, 25.000000)" sketch:type="MSShapeGroup">
				<g id="_x33_" transform="translate(253.606557, 77.195652)">
					<path id="Rectangle-387" class="st0" d="M-23,2.4c0-1.1,0.9-2,2-2h12.8c1.1,0,2,0.9,2,2v24.8c0,1.1-0.9,2-2,2H-21
						c-1.1,0-2-0.9-2-2V2.4z M-22.1,1.9h14.9v23.2h-14.9V1.9z M-21.5,4.2h13.8v7.5h-13.8V4.2z M-14.6,28.4c0.7,0,1.2-0.5,1.2-1.2
						c0-0.7-0.5-1.2-1.2-1.2s-1.2,0.5-1.2,1.2C-15.8,27.9-15.3,28.4-14.6,28.4z"/>
					<path id="Line" class="st1" d="M-20.9,13.9h12.1"/>
					<path id="Line_1_" class="st1" d="M-18.9,15.9h8.5"/>
					<path id="Line_2_" class="st1" d="M-18.9,17.9h8.5"/>
				</g>
			</g>
		</g>
	</g>
</g>
</svg>
