<?xml version="1.0" encoding="UTF-8" standalone="no"?>
<svg width="37px" height="36px" viewBox="0 0 37 36" version="1.1" xmlns="http://www.w3.org/2000/svg" xmlns:xlink="http://www.w3.org/1999/xlink" xmlns:sketch="http://www.bohemiancoding.com/sketch/ns">
    <!-- Generator: Sketch 3.5.2 (25235) - http://www.bohemiancoding.com/sketch -->
    <title>Group 38</title>
    <desc>Created with Sketch.</desc>
    <defs></defs>
    <g id="Page-1" stroke="none" stroke-width="1" fill="none" fill-rule="evenodd" sketch:type="MSPage">
        <g id="1170" sketch:type="MSArtboardGroup" transform="translate(-924.000000, -793.000000)">
            <g id="Group-38" sketch:type="MSLayerGroup" transform="translate(925.000000, 794.000000)">
                <path d="M26.2075195,15.4648438 L33.7480469,7.78515625 L26.2839355,0.369628906 L18.715332,7.87792969" id="Path-6561" stroke="#98A1A5" stroke-width="2" sketch:type="MSShapeGroup"></path>
                <path d="M28.411377,21.1218262 L9.02294922,1.70776367 L5.38842773,1.44384766 L1.35302734,5.54492188 L1.35302734,8.91748047 L20.8273926,28.7788086" id="Path-6562" stroke="#98A1A5" stroke-width="2" stroke-linecap="round" sketch:type="MSShapeGroup"></path>
                <path d="M23.4997559,30.1904297 L32.6782227,32.6159668 L30.3151855,23.4536133" id="Path-6563" stroke="#98A1A5" stroke-width="2" stroke-linecap="round" stroke-linejoin="round" sketch:type="MSShapeGroup"></path>
                <path d="M28.6838379,30.5588379 L31.0026855,28.2841797 L32.9951172,32.2731934 L29.828125,31.5620117 L28.6838379,30.5588379 Z" id="Path-6564" fill="#98A1A5" sketch:type="MSShapeGroup"></path>
                <path d="M25.8278809,23.8024902 L4.83642578,2.96606445 L3.41186523,3.04248047 L2.1887207,4.42407227 L23.5046387,25.9575195" id="Path-6565" stroke="#98A1A5" stroke-linecap="round" sketch:type="MSShapeGroup"></path>
                <path d="M23.4055176,9.55297852 L20.3291016,6.56933594 L23.3710937,3.85180664 L26.0444336,6.81713867" id="Path-6566" stroke="#98A1A5" stroke-linecap="round" sketch:type="MSShapeGroup"></path>
                <path d="M7.63842773,18.911377 L0.653808594,25.970459 L7.94238281,33.3376465 L15.2351074,26.2905273" id="Path-6567" stroke="#98A1A5" stroke-width="2" sketch:type="MSShapeGroup"></path>
                <path d="M10.1804199,22.7973633 L6.68481445,19.4504395 L4.1784668,22.3554688 L7.42407227,25.447998" id="Path-6568" stroke="#98A1A5" stroke-linecap="round" sketch:type="MSShapeGroup"></path>
            </g>
        </g>
    </g>
</svg>