<?xml version="1.0" encoding="UTF-8" standalone="no"?>
<svg width="38px" height="38px" viewBox="0 0 38 38" version="1.1" xmlns="http://www.w3.org/2000/svg" xmlns:xlink="http://www.w3.org/1999/xlink" xmlns:sketch="http://www.bohemiancoding.com/sketch/ns">
    <!-- Generator: Sketch 3.5.2 (25235) - http://www.bohemiancoding.com/sketch -->
    <title>Group 35</title>
    <desc>Created with Sketch.</desc>
    <defs></defs>
    <g id="Page-1" stroke="none" stroke-width="1" fill="none" fill-rule="evenodd" sketch:type="MSPage">
        <g id="1170" sketch:type="MSArtboardGroup" transform="translate(-208.000000, -789.000000)" fill="#A7A9AA">
            <g id="Group-35" sketch:type="MSLayerGroup" transform="translate(208.000000, 789.000000)">
                <path d="M25.74025,15.7693811 C26.5416419,17.1623158 27,18.7776303 27,20.5 C27,25.7467051 22.7467051,30 17.5,30 C12.2532949,30 8,25.7467051 8,20.5 C8,15.2532949 12.2532949,11 17.5,11 C19.2731153,11 20.9327741,11.4857649 22.3531554,12.3314737 L21.0049357,13.867658 C19.9588925,13.3137174 18.7660826,13 17.5,13 C13.3578644,13 10,16.3578644 10,20.5 C10,24.6421356 13.3578644,28 17.5,28 C21.6421356,28 25,24.6421356 25,20.5 C25,19.3416533 24.7374018,18.2446397 24.2684892,17.2652428 L25.74025,15.7693811 Z" id="Oval-200" sketch:type="MSShapeGroup"></path>
                <path d="M32.7588921,11.925338 C34.1859242,14.4593415 35,17.384602 35,20.5 C35,30.1649831 27.1649831,38 17.5,38 C7.83501688,38 0,30.1649831 0,20.5 C0,10.8350169 7.83501688,3 17.5,3 C20.5955433,3 23.5033649,3.80373246 26.026166,5.21389877 L26.1315763,8.13432393 C23.6863049,6.42427875 20.7103105,5.42105263 17.5,5.42105263 C9.17212733,5.42105263 2.42105263,12.1721273 2.42105263,20.5 C2.42105263,28.8278727 9.17212733,35.5789474 17.5,35.5789474 C25.8278727,35.5789474 32.5789474,28.8278727 32.5789474,20.5 C32.5789474,17.2920403 31.5771899,14.3180536 29.8694315,11.8737962 L32.7588921,11.925338 Z" id="Oval-200" sketch:type="MSShapeGroup"></path>
                <path d="M19.8261395,19.5609267 C19.93835,19.8450791 20,20.1547199 20,20.4787598 C20,21.8594716 18.8807119,22.9787598 17.5,22.9787598 C16.1192881,22.9787598 15,21.8594716 15,20.4787598 C15,19.0980479 16.1192881,17.9787598 17.5,17.9787598 C17.716543,17.9787598 17.9266558,18.0062909 18.127029,18.0580438 L27.5852051,8.78686523 L27.4613037,5.78808594 L33.2320557,0 L33.1777344,4.07958984 L33.7891846,4.83007812 L37.9904785,4.76062012 L32.0344238,10.7145996 L28.9057617,10.644043 L19.8261395,19.5609267 Z" id="Oval-204" sketch:type="MSShapeGroup"></path>
            </g>
        </g>
    </g>
</svg>