<?xml version="1.0" encoding="utf-8"?>
<!-- Generator: Adobe Illustrator 19.2.1, SVG Export Plug-In . SVG Version: 6.00 Build 0)  -->
<svg version="1.1" id="图层_1" xmlns:sketch="http://www.bohemiancoding.com/sketch/ns"
	 xmlns="http://www.w3.org/2000/svg" xmlns:xlink="http://www.w3.org/1999/xlink" x="0px" y="0px" viewBox="0 0 44 38"
	 style="enable-background:new 0 0 44 38;" xml:space="preserve" width="44" height="38">
<style type="text/css">
	.st0{fill:#A7A9AA;}
</style>
<title>Group 35</title>
<desc>Created with Sketch.</desc>
<g id="Page-1" sketch:type="MSPage">
	<g id="_x31_170" transform="translate(-208.000000, -789.000000)" sketch:type="MSArtboardGroup">
		<g id="Group-35" transform="translate(208.000000, 789.000000)" sketch:type="MSLayerGroup">
			<path id="Oval-200" sketch:type="MSShapeGroup" class="st0" d="M31.7,15.8c0.8,1.4,1.3,3,1.3,4.7c0,5.2-4.3,9.5-9.5,9.5
				S14,25.7,14,20.5s4.3-9.5,9.5-9.5c1.8,0,3.4,0.5,4.9,1.3L27,13.9c-1-0.6-2.2-0.9-3.5-0.9c-4.1,0-7.5,3.4-7.5,7.5s3.4,7.5,7.5,7.5
				s7.5-3.4,7.5-7.5c0-1.2-0.3-2.3-0.7-3.2L31.7,15.8z"/>
			<path id="Oval-200_1_" sketch:type="MSShapeGroup" class="st0" d="M38.8,11.9c1.4,2.5,2.2,5.5,2.2,8.6C41,30.2,33.2,38,23.5,38
				S6,30.2,6,20.5S13.8,3,23.5,3c3.1,0,6,0.8,8.5,2.2l0.1,2.9c-2.4-1.7-5.4-2.7-8.6-2.7c-8.3,0-15.1,6.8-15.1,15.1
				s6.8,15.1,15.1,15.1s15.1-6.8,15.1-15.1c0-3.2-1-6.2-2.7-8.6L38.8,11.9z"/>
			<path id="Oval-204" sketch:type="MSShapeGroup" class="st0" d="M25.8,19.6c0.1,0.3,0.2,0.6,0.2,0.9c0,1.4-1.1,2.5-2.5,2.5
				S21,21.9,21,20.5s1.1-2.5,2.5-2.5c0.2,0,0.4,0,0.6,0.1l9.5-9.3l-0.1-3L39.2,0l-0.1,4.1l0.6,0.8L44,4.8l-6,6l-3.1-0.1L25.8,19.6z"
				/>
		</g>
	</g>
</g>
</svg>
