<?xml version="1.0" encoding="utf-8"?>
<!-- Generator: Adobe Illustrator 19.2.1, SVG Export Plug-In . SVG Version: 6.00 Build 0)  -->
<svg version="1.1" id="图层_1" xmlns:sketch="http://www.bohemiancoding.com/sketch/ns"
	 xmlns="http://www.w3.org/2000/svg" xmlns:xlink="http://www.w3.org/1999/xlink" x="0px" y="0px" viewBox="0 0 30 30"
	 style="enable-background:new 0 0 30 30;" xml:space="preserve">
<style type="text/css">
	.st0{fill:#FFFFFF;stroke:#BBCADA}
	.st1{fill:none;stroke:#BBCADA;stroke-linecap:square;}
</style>
<title>1</title>
<desc>Created with Sketch.</desc>
<g id="Page-1" sketch:type="MSPage">
	<g id="_x31_170" transform="translate(-639.000000, -1311.000000)" sketch:type="MSArtboardGroup">
		<g id="_x32_" transform="translate(45.000000, 1211.000000)" sketch:type="MSLayerGroup">
			<g id="Group-10" transform="translate(607.000000, 25.000000)" sketch:type="MSShapeGroup">
				<g id="_x31_" transform="translate(13.770492, 74.891304)">
					<path id="Path-6569" class="st0" d="M-8.7,5l4.6-1.6l0.4,4.9l4.8,1.3l-2.2,4.2l3.2,3.7l-3.9,2.4l0.7,5l-4.8-0.2l-1.8,4.3
						l-4-2.6l-4,2.9l-1.8-4.5l-4.9,0.1l0.8-4.7l-4.2-2.6l3.4-3.6l-2.2-4.4l4.6-1.3l0.4-4.7l4.6,1.4l3.1-4L-8.7,5z M-9.2,6.8l3.7-1.3
						l0.3,4l3.9,1.1L-3,13.9l2.6,3l-3.2,2l0.6,4.1l-3.9-0.1l-1.5,3.5l-3.3-2.1l-3.3,2.3l-1.4-3.7l-4,0.1l0.6-3.8L-23,17l2.8-2.9
						l-1.8-3.6l3.8-1.1l0.3-3.8l3.7,1.2l2.6-3.2L-9.2,6.8z" fill=""/>
					<path id="Line" class="st1" d="M-8.4,9.2l-6.9,12.2"/>
					<path id="_xFF10_" class="st0" d="M-5.9,15.2c0.4,0.7,0.7,1.6,0.7,2.7s-0.2,2-0.7,2.7c-0.5,0.7-1.1,1-1.9,1
						c-0.8,0-1.5-0.3-1.9-1c-0.4-0.7-0.7-1.6-0.7-2.7s0.2-2,0.7-2.7c0.4-0.7,1.1-1,1.9-1C-7,14.1-6.4,14.5-5.9,15.2L-5.9,15.2z
						 M-9.1,16c-0.2,0.4-0.2,1-0.2,1.8c0,0.8,0.1,1.4,0.2,1.8c0.2,0.7,0.6,1,1.2,1c0.6,0,1-0.3,1.2-1c0.2-0.5,0.2-1.1,0.2-1.8
						c0-0.8-0.1-1.4-0.2-1.8c-0.2-0.7-0.7-1-1.2-1C-8.4,15.1-8.9,15.4-9.1,16L-9.1,16z"/>
					<path id="_xFF10__1_" class="st0" d="M-13.5,10.1c0.4,0.7,0.7,1.6,0.7,2.7s-0.2,2-0.7,2.7c-0.5,0.7-1.1,1-1.9,1
						c-0.8,0-1.5-0.3-1.9-1c-0.4-0.7-0.7-1.6-0.7-2.7s0.2-2,0.7-2.7c0.4-0.7,1.1-1,1.9-1C-14.6,9.1-13.9,9.5-13.5,10.1L-13.5,10.1z
						 M-16.6,11c-0.2,0.4-0.2,1-0.2,1.8c0,0.8,0.1,1.4,0.2,1.8c0.2,0.7,0.6,1,1.2,1c0.6,0,1-0.3,1.2-1c0.2-0.5,0.2-1.1,0.2-1.8
						c0-0.8-0.1-1.4-0.2-1.8c-0.2-0.7-0.7-1-1.2-1C-16,10-16.4,10.4-16.6,11L-16.6,11z"/>
				</g>
			</g>
		</g>
	</g>
</g>
</svg>
