<?xml version="1.0" encoding="utf-8"?>
<!-- Generator: Adobe Illustrator 19.2.1, SVG Export Plug-In . SVG Version: 6.00 Build 0)  -->
<svg version="1.1" id="图层_1" xmlns:sketch="http://www.bohemiancoding.com/sketch/ns"
	 xmlns="http://www.w3.org/2000/svg" xmlns:xlink="http://www.w3.org/1999/xlink" x="0px" y="0px" viewBox="0 0 30 30"
	 style="enable-background:new 0 0 30 30;" xml:space="preserve">
<style type="text/css">
	.st0{fill:none;stroke:#BBCADA;stroke-width:1.5;}
	.st1{fill:#FFFFFF;stroke:#BBCADA;stroke-width:1.5;}
	.st2{fill:#BBCADA;}
	.st3{fill:none;stroke:#BBCADA;stroke-linecap:square;}
</style>
<title>4</title>
<desc>Created with Sketch.</desc>
<g id="Page-1" sketch:type="MSPage">
	<g id="_x31_170" transform="translate(-987.000000, -1316.000000)" sketch:type="MSArtboardGroup">
		<g id="_x32_" transform="translate(45.000000, 1211.000000)" sketch:type="MSLayerGroup">
			<g id="Group-10" transform="translate(607.000000, 25.000000)" sketch:type="MSShapeGroup">
				<g id="_x34_" transform="translate(363.770492, 80.652174)">
					<path id="Rectangle-390" class="st0" d="M-24.2,3.3h22.2v6.4h-22.2V3.3z M-24.2,11.3h22.2v6.4h-22.2V11.3z M-24.2,19.3h22.2
						v6.4h-22.2V19.3z"/>
					<ellipse id="Oval-217" class="st1" cx="-6.9" cy="21.6" rx="5.6" ry="5.7"/>
					<path id="Oval-216" class="st2" d="M-6.7,21.4c0.9,0,1.6-0.7,1.6-1.6c0-0.9-0.7-1.6-1.6-1.6s-1.6,0.7-1.6,1.6
						C-8.3,20.7-7.6,21.4-6.7,21.4z M-9.3,23.5c0-0.8,0.6-1.5,1.5-1.5h2.4c0.8,0,1.5,0.7,1.5,1.5v1.5h-5.3V23.5z"/>
					<path id="Line" class="st3" d="M-19.9,9.6v1.9"/>
					<path id="Line_1_" class="st3" d="M-19.9,17.3v2.9"/>
					<path id="Line_2_" class="st3" d="M-6.6,9.6v1.9"/>
				</g>
			</g>
		</g>
	</g>
</g>
</svg>
